<?xml version="1.0" encoding="UTF-8" standalone="no"?>
<!DOCTYPE svg PUBLIC "-//W3C//DTD SVG 1.1//EN" "http://www.w3.org/Graphics/SVG/1.1/DTD/svg11.dtd">
<svg width="100%" height="100%" viewBox="0 0 254 236" version="1.1" xmlns="http://www.w3.org/2000/svg" xmlns:xlink="http://www.w3.org/1999/xlink" xml:space="preserve" xmlns:serif="http://www.serif.com/" style="fill-rule:evenodd;clip-rule:evenodd;stroke-linejoin:round;stroke-miterlimit:1.41421;">
    <g transform="matrix(1,0,0,1,-48.1718,-245.674)">
        <g>
            <g transform="matrix(1,0,0,1,-75.7742,111.866)">
                <path d="M134.284,357.624C212.375,381.832 281.59,366.003 343.662,317.963L377.743,170.901C310.356,204.353 241.655,227.819 170.167,230.089L134.284,357.624Z" style="fill:white;"/>
            </g>
            <g transform="matrix(1,0,0,1,-75.7421,113.416)">
                <path d="M197.903,359.102L276.422,283.493L245.148,282.147L245.447,274.341L301.478,217.229L260.528,216.529L261.409,209.051L323.812,132.937L262.305,132.258L200.417,240.37L234.737,240.881L238.938,245.95L192.992,297.718L228.344,298.178L232.422,303.185L195.81,357.111L197.903,359.102Z" style="fill:white;"/>
            </g>
            <g transform="matrix(1,0,0,1,-75.875,113.156)">
                <path d="M334.539,309.086L368.234,161.82C336.364,179.867 302.54,195.516 264.458,205.942L261.414,209.293L260.552,216.381L302.007,217.354L245.748,274.017L245.258,282.657L276.386,283.491L198.027,359.772L195.849,357.044L232.433,303.677L228.538,297.824L193.778,297.352L239.084,245.577L235.022,241.304L200.973,240.185L216.062,213L158.153,213.803L124.047,347.865C213.304,373.404 281.691,356.898 334.539,309.086Z" style="fill:rgb(255,242,0);"/>
            </g>
            <g transform="matrix(1,0,0,1,-75.2591,112.809)">
                <path d="M207.798,345.132L268.533,286.673L241.833,286.204L241.867,273.398L293.831,220.083L257.393,219.522L257.92,207.503L316.622,135.964L265.051,135.496L205.992,237.776L236.504,238.786L242.667,245.366L200.142,294.824L230.888,295.288L236.421,303.526L207.798,345.132Z" style="fill:rgb(237,32,36);"/>
            </g>
        </g>
    </g>
</svg>
