<?xml version="1.0" encoding="UTF-8" standalone="no"?><!DOCTYPE svg PUBLIC "-//W3C//DTD SVG 1.1//EN" "http://www.w3.org/Graphics/SVG/1.1/DTD/svg11.dtd"><svg width="100%" height="100%" viewBox="0 0 1518 521" version="1.1" xmlns="http://www.w3.org/2000/svg" xmlns:xlink="http://www.w3.org/1999/xlink" xml:space="preserve" xmlns:serif="http://www.serif.com/" style="fill-rule:evenodd;clip-rule:evenodd;stroke-linejoin:round;stroke-miterlimit:1.41421;"><g><path d="M0,104.836l0,-103.078l20.813,0l0,40.57l40.781,0l0,-40.57l20.812,0l0,103.078l-20.812,0l0,-45.07l-40.781,0l0,45.07l-20.813,0Z" style="fill-rule:nonzero;"/><path d="M152.578,1.758l36.844,103.078l-22.57,0l-26.086,-76.219l-25.243,76.219l-22.078,0l36.914,-103.078l22.219,0Z" style="fill-rule:nonzero;"/><path d="M199.969,104.836l0,-103.078l76.429,0l0,17.437l-55.617,0l0,22.852l51.75,0l0,17.367l-51.75,0l0,28.055l57.586,0l0,17.367l-78.398,0Z" style="fill-rule:nonzero;"/><path d="M296.297,104.836l0,-103.078l20.812,0l0,45.773l42.047,-45.773l27.985,0l-38.813,40.148l40.922,62.93l-26.93,0l-28.336,-48.375l-16.875,17.227l0,31.148l-20.812,0Z" style="fill-rule:nonzero;"/><path d="M423.211,104.836l0,-85.641l-30.586,0l0,-17.437l81.914,0l0,17.437l-30.516,0l0,85.641l-20.812,0Z" style="fill-rule:nonzero;"/><path d="M487.969,104.836l0,-103.078l33.398,0c12.656,0 20.906,0.515 24.75,1.547c5.906,1.547 10.852,4.91 14.836,10.09c3.985,5.179 5.977,11.871 5.977,20.074c0,6.328 -1.149,11.648 -3.446,15.961c-2.296,4.312 -5.214,7.699 -8.754,10.16c-3.539,2.461 -7.136,4.09 -10.792,4.887c-4.969,0.984 -12.165,1.476 -21.586,1.476l-13.571,0l0,38.883l-20.812,0Zm20.812,-85.641l0,29.25l11.391,0c8.203,0 13.687,-0.539 16.453,-1.617c2.766,-1.078 4.934,-2.765 6.504,-5.062c1.57,-2.297 2.355,-4.969 2.355,-8.016c0,-3.75 -1.101,-6.844 -3.304,-9.281c-2.203,-2.438 -4.992,-3.961 -8.367,-4.571c-2.485,-0.468 -7.477,-0.703 -14.977,-0.703l-10.055,0Z" style="fill-rule:nonzero;"/><path d="M579.797,53.93c0,-10.5 1.57,-19.313 4.711,-26.438c2.344,-5.25 5.543,-9.961 9.597,-14.133c4.055,-4.172 8.497,-7.265 13.325,-9.281c6.422,-2.719 13.828,-4.078 22.218,-4.078c15.188,0 27.34,4.711 36.457,14.133c9.118,9.422 13.676,22.523 13.676,39.305c0,16.64 -4.523,29.66 -13.57,39.058c-9.047,9.399 -21.141,14.098 -36.281,14.098c-15.328,0 -27.516,-4.676 -36.563,-14.028c-9.047,-9.351 -13.57,-22.23 -13.57,-38.636Zm21.445,-0.703c0,11.671 2.696,20.519 8.086,26.543c5.391,6.023 12.235,9.035 20.531,9.035c8.297,0 15.106,-2.989 20.426,-8.965c5.32,-5.977 7.981,-14.942 7.981,-26.895c0,-11.812 -2.59,-20.625 -7.77,-26.437c-5.18,-5.813 -12.058,-8.719 -20.637,-8.719c-8.578,0 -15.492,2.941 -20.742,8.824c-5.25,5.883 -7.875,14.754 -7.875,26.614Z" style="fill-rule:nonzero;"/><path d="M740.812,1.758l36.844,103.078l-22.57,0l-26.086,-76.219l-25.242,76.219l-22.078,0l36.914,-103.078l22.218,0Z" style="fill-rule:nonzero;"/><path d="M780.117,53.93c0,-10.5 1.57,-19.313 4.711,-26.438c2.344,-5.25 5.543,-9.961 9.598,-14.133c4.054,-4.172 8.496,-7.265 13.324,-9.281c6.422,-2.719 13.828,-4.078 22.219,-4.078c15.187,0 27.34,4.711 36.457,14.133c9.117,9.422 13.676,22.523 13.676,39.305c0,16.64 -4.524,29.66 -13.571,39.058c-9.047,9.399 -21.14,14.098 -36.281,14.098c-15.328,0 -27.516,-4.676 -36.563,-14.028c-9.046,-9.351 -13.57,-22.23 -13.57,-38.636Zm21.445,-0.703c0,11.671 2.696,20.519 8.086,26.543c5.391,6.023 12.235,9.035 20.532,9.035c8.297,0 15.105,-2.989 20.425,-8.965c5.321,-5.977 7.981,-14.942 7.981,-26.895c0,-11.812 -2.59,-20.625 -7.77,-26.437c-5.179,-5.813 -12.058,-8.719 -20.636,-8.719c-8.578,0 -15.492,2.941 -20.743,8.824c-5.25,5.883 -7.875,14.754 -7.875,26.614Z" style="fill-rule:nonzero;"/><path d="M896.695,1.758l72.563,0l0,17.508l-51.75,0l0,85.57l-20.813,0l0,-103.078Z" style="fill-rule:nonzero;"/><rect x="982.266" y="1.758" width="20.813" height="103.078" style="fill-rule:nonzero;"/><path d="M1023.19,104.836l0,-103.078l20.813,0l0,45.773l42.047,-45.773l27.984,0l-38.812,40.148l40.922,62.93l-26.93,0l-28.336,-48.375l-16.875,17.227l0,31.148l-20.813,0Z" style="fill-rule:nonzero;"/><path d="M1126.9,104.836l0,-103.078l76.43,0l0,17.437l-55.617,0l0,22.852l51.75,0l0,17.367l-51.75,0l0,28.055l57.586,0l0,17.367l-78.399,0Z" style="fill-rule:nonzero;"/><path d="M1220.13,1.758l71.367,0l0,17.437l-45.703,0l26.648,31.782l-29.39,36.492l50.625,0l0,17.367l-74.883,0l0,-19.266l27.633,-34.593l-26.297,-30.657l0,-18.562Z" style="fill-rule:nonzero;"/></g><g><path d="M395.381,289.364l0,-103.078l76.429,0l0,17.437l-55.617,0l0,22.852l51.75,0l0,17.367l-51.75,0l0,28.054l57.586,0l0,17.368l-78.398,0Z" style="fill-rule:nonzero;"/><path d="M491.779,186.286l72.563,0l0,17.507l-51.75,0l0,85.571l-20.813,0l0,-103.078Z" style="fill-rule:nonzero;"/><path d="M578.263,289.364l0,-103.078l20.813,0l0,45.773l42.047,-45.773l27.984,0l-38.812,40.148l40.922,62.93l-26.93,0l-28.336,-48.375l-16.875,17.226l0,31.149l-20.813,0Z" style="fill-rule:nonzero;"/><path d="M774.927,289.364l-22.64,0l-9,-23.414l-41.203,0l-8.508,23.414l-22.078,0l40.148,-103.078l22.008,0l41.273,103.078Zm-38.32,-40.782l-14.203,-38.25l-13.922,38.25l28.125,0Z" style="fill-rule:nonzero;"/><path d="M797.217,289.364l0,-85.641l-30.586,0l0,-17.437l81.914,0l0,17.437l-30.516,0l0,85.641l-20.812,0Z" style="fill-rule:nonzero;"/><path d="M944.24,289.364l-22.641,0l-9,-23.414l-41.203,0l-8.508,23.414l-22.078,0l40.149,-103.078l22.008,0l41.273,103.078Zm-38.32,-40.782l-14.203,-38.25l-13.922,38.25l28.125,0Z" style="fill-rule:nonzero;"/><path d="M952.467,186.286l71.367,0l0,17.437l-45.703,0l26.648,31.781l-29.391,36.492l50.625,0l0,17.368l-74.882,0l0,-19.266l27.632,-34.594l-26.296,-30.656l0,-18.562Z" style="fill-rule:nonzero;"/><path d="M1064.9,289.364l0,-85.641l-30.586,0l0,-17.437l81.914,0l0,17.437l-30.515,0l0,85.641l-20.813,0Z" style="fill-rule:nonzero;"/><path d="M1211.92,289.364l-22.641,0l-9,-23.414l-41.203,0l-8.508,23.414l-22.078,0l40.148,-103.078l22.008,0l41.274,103.078Zm-38.321,-40.782l-14.203,-38.25l-13.922,38.25l28.125,0Z" style="fill-rule:nonzero;"/><path d="M1220.15,186.286l71.367,0l0,17.437l-45.703,0l26.649,31.781l-29.391,36.492l50.625,0l0,17.368l-74.883,0l0,-19.266l27.633,-34.594l-26.297,-30.656l0,-18.562Z" style="fill-rule:nonzero;"/><path d="M1309.37,289.364l0,-103.078l76.429,0l0,17.437l-55.617,0l0,22.852l51.75,0l0,17.367l-51.75,0l0,28.054l57.586,0l0,17.368l-78.398,0Z" style="fill-rule:nonzero;"/><rect x="1404.79" y="186.286" width="20.813" height="103.078" style="fill-rule:nonzero;"/><path d="M1442.62,186.286l71.367,0l0,17.437l-45.703,0l26.648,31.781l-29.39,36.492l50.625,0l0,17.368l-74.883,0l0,-19.266l27.633,-34.594l-26.297,-30.656l0,-18.562Z" style="fill-rule:nonzero;"/></g><g><path d="M548.845,398.49l37.303,0l0,9.682l-23.889,0l13.929,17.646l-15.362,20.261l26.462,0l0,9.643l-39.142,0l0,-10.697l14.444,-19.207l-13.745,-17.021l0,-10.307Z" style="fill-rule:nonzero;"/><path d="M607.612,455.722l0,-47.55l-15.988,0l0,-9.682l42.817,0l0,9.682l-15.95,0l0,47.55l-10.879,0Z" style="fill-rule:nonzero;"/><path d="M641.461,455.722l0,-57.232l39.95,0l0,9.682l-29.071,0l0,12.688l27.049,0l0,9.643l-27.049,0l0,15.576l30.1,0l0,9.643l-40.979,0Z" style="fill-rule:nonzero;"/><path d="M717.097,398.49l19.259,57.232l-11.798,0l-13.635,-42.319l-13.194,42.319l-11.54,0l19.295,-57.232l11.613,0Z" style="fill-rule:nonzero;"/><rect x="741.538" y="398.49" width="10.879" height="57.232" style="fill-rule:nonzero;"/><path d="M760.576,427.458c0,-5.83 0.82,-10.723 2.462,-14.679c1.225,-2.915 2.897,-5.531 5.017,-7.847c2.119,-2.316 4.441,-4.034 6.964,-5.153c3.357,-1.51 7.228,-2.265 11.614,-2.265c7.939,0 14.291,2.616 19.056,7.847c4.766,5.232 7.149,12.506 7.149,21.823c0,9.24 -2.365,16.468 -7.094,21.687c-4.728,5.218 -11.05,7.827 -18.964,7.827c-8.012,0 -14.382,-2.596 -19.111,-7.788c-4.729,-5.193 -7.093,-12.343 -7.093,-21.452Zm11.209,-0.391c0,6.481 1.409,11.393 4.227,14.738c2.817,3.344 6.395,5.016 10.731,5.016c4.337,0 7.896,-1.659 10.677,-4.977c2.781,-3.319 4.171,-8.296 4.171,-14.933c0,-6.559 -1.353,-11.451 -4.061,-14.679c-2.707,-3.227 -6.303,-4.841 -10.787,-4.841c-4.483,0 -8.097,1.634 -10.842,4.9c-2.744,3.266 -4.116,8.192 -4.116,14.776Z" style="fill-rule:nonzero;"/><path d="M819.857,398.49l37.304,0l0,9.682l-23.889,0l13.929,17.646l-15.362,20.261l26.461,0l0,9.643l-39.141,0l0,-10.697l14.444,-19.207l-13.746,-17.021l0,-10.307Z" style="fill-rule:nonzero;"/><path d="M885.938,398.49l37.304,0l0,9.682l-23.889,0l13.929,17.646l-15.362,20.261l26.461,0l0,9.643l-39.141,0l0,-10.697l14.444,-19.207l-13.746,-17.021l0,-10.307Z" style="fill-rule:nonzero;"/><path d="M932.761,455.722l0,-57.232l43.074,0l0,57.232l-10.879,0l0,-47.55l-21.316,0l0,47.55l-10.879,0Z" style="fill-rule:nonzero;"/><path d="M1001.08,455.722l0,-24.087l-19.736,-33.145l12.753,0l12.679,22.643l12.423,-22.643l12.532,0l-19.809,33.223l0,24.009l-10.842,0Z" style="fill-rule:nonzero;"/><path d="M1037.14,455.722l0,-57.232l17.457,0c6.616,0 10.928,0.287 12.937,0.859c3.088,0.859 5.672,2.727 7.755,5.602c2.083,2.876 3.124,6.592 3.124,11.146c0,3.514 -0.6,6.468 -1.801,8.862c-1.2,2.394 -2.726,4.275 -4.576,5.641c-1.849,1.367 -3.73,2.271 -5.641,2.713c-2.597,0.547 -6.358,0.82 -11.283,0.82l-7.093,0l0,21.589l-10.879,0Zm10.879,-47.55l0,16.241l5.954,0c4.287,0 7.154,-0.3 8.6,-0.898c1.445,-0.599 2.579,-1.536 3.399,-2.811c0.821,-1.276 1.232,-2.759 1.232,-4.451c0,-2.082 -0.576,-3.8 -1.728,-5.153c-1.151,-1.353 -2.609,-2.199 -4.373,-2.537c-1.299,-0.261 -3.908,-0.391 -7.829,-0.391l-5.255,0Z" style="fill-rule:nonzero;"/><path d="M1085.14,427.458c0,-5.83 0.821,-10.723 2.462,-14.679c1.225,-2.915 2.897,-5.531 5.017,-7.847c2.119,-2.316 4.441,-4.034 6.964,-5.153c3.357,-1.51 7.228,-2.265 11.614,-2.265c7.939,0 14.291,2.616 19.056,7.847c4.766,5.232 7.149,12.506 7.149,21.823c0,9.24 -2.365,16.468 -7.093,21.687c-4.729,5.218 -11.051,7.827 -18.965,7.827c-8.012,0 -14.382,-2.596 -19.111,-7.788c-4.729,-5.193 -7.093,-12.343 -7.093,-21.452Zm11.209,-0.391c0,6.481 1.409,11.393 4.227,14.738c2.817,3.344 6.395,5.016 10.731,5.016c4.337,0 7.896,-1.659 10.677,-4.977c2.781,-3.319 4.171,-8.296 4.171,-14.933c0,-6.559 -1.353,-11.451 -4.061,-14.679c-2.707,-3.227 -6.303,-4.841 -10.787,-4.841c-4.483,0 -8.097,1.634 -10.841,4.9c-2.745,3.266 -4.117,8.192 -4.117,14.776Z" style="fill-rule:nonzero;"/><path d="M1146.07,398.49l37.929,0l0,9.721l-27.05,0l0,47.511l-10.879,0l0,-57.232Z" style="fill-rule:nonzero;"/><path d="M1208.37,398.49l19.258,57.232l-11.797,0l-13.636,-42.319l-13.194,42.319l-11.54,0l19.295,-57.232l11.614,0Z" style="fill-rule:nonzero;"/><path d="M1228.91,427.458c0,-5.83 0.821,-10.723 2.463,-14.679c1.225,-2.915 2.897,-5.531 5.017,-7.847c2.119,-2.316 4.44,-4.034 6.964,-5.153c3.357,-1.51 7.228,-2.265 11.614,-2.265c7.938,0 14.291,2.616 19.056,7.847c4.766,5.232 7.148,12.506 7.148,21.823c0,9.24 -2.364,16.468 -7.093,21.687c-4.729,5.218 -11.05,7.827 -18.964,7.827c-8.012,0 -14.383,-2.596 -19.111,-7.788c-4.729,-5.193 -7.094,-12.343 -7.094,-21.452Zm11.21,-0.391c0,6.481 1.409,11.393 4.226,14.738c2.818,3.344 6.395,5.016 10.732,5.016c4.337,0 7.896,-1.659 10.677,-4.977c2.781,-3.319 4.171,-8.296 4.171,-14.933c0,-6.559 -1.354,-11.451 -4.061,-14.679c-2.707,-3.227 -6.303,-4.841 -10.787,-4.841c-4.484,0 -8.098,1.634 -10.842,4.9c-2.744,3.266 -4.116,8.192 -4.116,14.776Z" style="fill-rule:nonzero;"/><path d="M1301.72,455.722l0,-24.087l-19.736,-33.145l12.753,0l12.68,22.643l12.422,-22.643l12.533,0l-19.81,33.223l0,24.009l-10.842,0Z" style="fill-rule:nonzero;"/></g><rect x="286.818" y="435.707" width="245.45" height="20.583"/><rect x="1348.25" y="434.732" width="169.63" height="20.583"/><rect x="286.818" y="401.54" width="245.45" height="20.583"/><rect x="1348.25" y="400.565" width="169.63" height="20.583"/><clipPath id="_clip1"><rect x="22.716" y="174.167" width="372.804" height="346.384"/></clipPath><g clip-path="url(#_clip1)"><g><path d="M37.889,502.668c114.616,35.531 216.205,12.299 307.31,-58.211l50.022,-215.848c-98.906,49.099 -199.74,83.541 -304.665,86.873l-52.667,187.186Z" style="fill:#fff;"/><path d="M131.312,507.113l115.244,-110.974l-45.901,-1.975l0.438,-11.458l82.239,-83.825l-60.104,-1.027l1.293,-10.976l91.591,-111.714l-90.276,-0.997l-90.835,158.679l50.373,0.75l6.166,7.44l-67.436,75.982l51.887,0.675l5.985,7.349l-53.736,79.149l3.072,2.922Z" style="fill:#fff;"/><path d="M331.661,433.321l49.456,-216.147c-46.777,26.489 -96.422,49.457 -152.316,64.76l-4.467,4.918l-1.266,10.403l60.845,1.428l-82.573,83.166l-0.719,12.682l45.687,1.224l-115.009,111.96l-3.197,-4.004l53.695,-78.329l-5.717,-8.59l-51.018,-0.693l66.497,-75.992l-5.962,-6.272l-49.975,-1.642l22.147,-39.9l-84.995,1.178l-50.058,196.767c131.005,37.485 231.379,13.258 308.945,-56.917Z" style="fill:#fff200;"/><path d="M146.544,485.718l89.142,-85.802l-39.188,-0.689l0.05,-18.795l76.269,-78.253l-53.481,-0.823l0.773,-17.641l86.159,-105l-75.692,-0.686l-86.683,150.119l44.783,1.482l9.046,9.658l-62.415,72.591l45.127,0.681l8.121,12.091l-42.011,61.067Z" style="fill:#ed2024;"/></g></g></svg>