<?xml version="1.0" encoding="UTF-8" standalone="no"?><!DOCTYPE svg PUBLIC "-//W3C//DTD SVG 1.1//EN" "http://www.w3.org/Graphics/SVG/1.1/DTD/svg11.dtd"><svg width="100%" height="100%" viewBox="0 0 1486 521" version="1.1" xmlns="http://www.w3.org/2000/svg" xmlns:xlink="http://www.w3.org/1999/xlink" xml:space="preserve" xmlns:serif="http://www.serif.com/" style="fill-rule:evenodd;clip-rule:evenodd;stroke-linejoin:round;stroke-miterlimit:1.41421;"><g><path d="M55.214,104.836l0,-103.078l76.43,0l0,17.437l-55.617,0l0,22.852l51.75,0l0,17.367l-51.75,0l0,28.055l57.586,0l0,17.367l-78.399,0Z" style="fill-rule:nonzero;"/><path d="M151.824,104.836l0,-102.234l20.812,0l0,84.867l51.75,0l0,17.367l-72.562,0Z" style="fill-rule:nonzero;"/><path d="M239.222,104.836l0,-103.078l76.43,0l0,17.437l-55.618,0l0,22.852l51.75,0l0,17.367l-51.75,0l0,28.055l57.586,0l0,17.367l-78.398,0Z" style="fill-rule:nonzero;"/><path d="M401.222,66.938l20.18,6.398c-3.094,11.25 -8.239,19.605 -15.434,25.066c-7.195,5.461 -16.324,8.192 -27.387,8.192c-13.687,0 -24.937,-4.676 -33.75,-14.028c-8.812,-9.351 -13.218,-22.136 -13.218,-38.355c0,-17.156 4.429,-30.481 13.289,-39.973c8.859,-9.492 20.507,-14.238 34.945,-14.238c12.609,0 22.852,3.727 30.727,11.18c4.687,4.406 8.203,10.734 10.546,18.984l-20.601,4.922c-1.219,-5.344 -3.762,-9.563 -7.629,-12.656c-3.867,-3.094 -8.566,-4.641 -14.098,-4.641c-7.64,0 -13.84,2.742 -18.597,8.227c-4.758,5.484 -7.137,14.367 -7.137,26.648c0,13.031 2.344,22.313 7.031,27.844c4.688,5.531 10.781,8.297 18.281,8.297c5.532,0 10.289,-1.758 14.274,-5.274c3.984,-3.515 6.844,-9.047 8.578,-16.593Z" style="fill-rule:nonzero;"/><path d="M462.464,104.836l0,-85.641l-30.586,0l0,-17.437l81.914,0l0,17.437l-30.515,0l0,85.641l-20.813,0Z" style="fill-rule:nonzero;"/><path d="M527.292,104.836l0,-103.078l43.805,0c11.016,0 19.019,0.926 24.012,2.777c4.992,1.852 8.988,5.145 11.988,9.879c3,4.734 4.5,10.149 4.5,16.242c0,7.735 -2.273,14.121 -6.82,19.16c-4.547,5.039 -11.344,8.215 -20.391,9.528c4.5,2.625 8.215,5.508 11.145,8.648c2.929,3.141 6.878,8.719 11.847,16.735l12.586,20.109l-24.89,0l-15.047,-22.43c-5.344,-8.015 -9,-13.066 -10.969,-15.152c-1.969,-2.086 -4.055,-3.516 -6.258,-4.289c-2.203,-0.774 -5.695,-1.16 -10.476,-1.16l-4.219,0l0,43.031l-20.813,0Zm20.813,-59.484l15.398,0c9.985,0 16.219,-0.422 18.703,-1.266c2.485,-0.844 4.43,-2.297 5.836,-4.359c1.407,-2.063 2.11,-4.641 2.11,-7.735c0,-3.469 -0.926,-6.269 -2.778,-8.402c-1.851,-2.133 -4.465,-3.481 -7.84,-4.043c-1.687,-0.234 -6.75,-0.352 -15.187,-0.352l-16.242,0l0,26.157Z" style="fill-rule:nonzero;"/><rect x="630.581" y="1.758" width="20.813" height="103.078" style="fill-rule:nonzero;"/><path d="M737.175,66.938l20.18,6.398c-3.094,11.25 -8.239,19.605 -15.434,25.066c-7.195,5.461 -16.324,8.192 -27.387,8.192c-13.687,0 -24.937,-4.676 -33.75,-14.028c-8.812,-9.351 -13.218,-22.136 -13.218,-38.355c0,-17.156 4.429,-30.481 13.289,-39.973c8.859,-9.492 20.508,-14.238 34.945,-14.238c12.609,0 22.852,3.727 30.727,11.18c4.687,4.406 8.203,10.734 10.547,18.984l-20.602,4.922c-1.219,-5.344 -3.762,-9.563 -7.629,-12.656c-3.867,-3.094 -8.566,-4.641 -14.098,-4.641c-7.64,0 -13.839,2.742 -18.597,8.227c-4.758,5.484 -7.137,14.367 -7.137,26.648c0,13.031 2.344,22.313 7.031,27.844c4.688,5.531 10.782,8.297 18.282,8.297c5.531,0 10.289,-1.758 14.273,-5.274c3.984,-3.515 6.844,-9.047 8.578,-16.593Z" style="fill-rule:nonzero;"/><path d="M868.167,104.836l-22.64,0l-9,-23.414l-41.203,0l-8.508,23.414l-22.078,0l40.148,-103.078l22.008,0l41.273,103.078Zm-38.32,-40.781l-14.203,-38.25l-13.922,38.25l28.125,0Z" style="fill-rule:nonzero;"/><path d="M879.769,104.836l0,-102.234l20.812,0l0,84.867l51.75,0l0,17.367l-72.562,0Z" style="fill-rule:nonzero;"/></g><g><rect x="372.032" y="186.286" width="20.813" height="103.078" style="fill-rule:nonzero;"/><path d="M412.884,289.364l0,-103.078l20.25,0l42.187,68.835l0,-68.835l19.336,0l0,103.078l-20.883,0l-41.554,-67.219l0,67.219l-19.336,0Z" style="fill-rule:nonzero;"/><path d="M511.392,255.825l20.25,-1.969c1.218,6.797 3.691,11.789 7.418,14.976c3.726,3.188 8.754,4.782 15.082,4.782c6.703,0 11.754,-1.418 15.152,-4.254c3.398,-2.836 5.098,-6.153 5.098,-9.949c0,-2.438 -0.715,-4.512 -2.145,-6.223c-1.43,-1.711 -3.926,-3.199 -7.488,-4.465c-2.438,-0.844 -7.992,-2.344 -16.664,-4.5c-11.156,-2.766 -18.985,-6.164 -23.485,-10.195c-6.328,-5.672 -9.492,-12.586 -9.492,-20.742c0,-5.25 1.488,-10.161 4.465,-14.731c2.977,-4.57 7.266,-8.051 12.867,-10.441c5.602,-2.391 12.364,-3.586 20.285,-3.586c12.938,0 22.676,2.836 29.215,8.508c6.539,5.671 9.973,13.242 10.301,22.71l-20.812,0.915c-0.891,-5.297 -2.801,-9.106 -5.731,-11.426c-2.93,-2.321 -7.324,-3.481 -13.184,-3.481c-6.046,0 -10.781,1.242 -14.203,3.727c-2.203,1.594 -3.304,3.726 -3.304,6.398c0,2.438 1.031,4.524 3.093,6.258c2.625,2.203 9,4.5 19.125,6.891c10.125,2.39 17.614,4.863 22.465,7.418c4.852,2.554 8.649,6.047 11.391,10.476c2.742,4.43 4.113,9.903 4.113,16.418c0,5.906 -1.64,11.438 -4.922,16.594c-3.281,5.156 -7.922,8.988 -13.922,11.496c-6,2.508 -13.476,3.762 -22.429,3.762c-13.032,0 -23.039,-3.012 -30.024,-9.035c-6.984,-6.024 -11.156,-14.801 -12.515,-26.332Z" style="fill-rule:nonzero;"/><path d="M635.915,289.364l0,-85.641l-30.586,0l0,-17.437l81.914,0l0,17.437l-30.515,0l0,85.641l-20.813,0Z" style="fill-rule:nonzero;"/><path d="M782.939,289.364l-22.641,0l-9,-23.414l-41.203,0l-8.508,23.414l-22.078,0l40.148,-103.078l22.008,0l41.274,103.078Zm-38.321,-40.782l-14.203,-38.25l-13.922,38.25l28.125,0Z" style="fill-rule:nonzero;"/><path d="M794.54,289.364l0,-102.235l20.813,0l0,84.867l51.75,0l0,17.368l-72.563,0Z" style="fill-rule:nonzero;"/><path d="M882.501,289.364l0,-102.235l20.813,0l0,84.867l51.75,0l0,17.368l-72.563,0Z" style="fill-rule:nonzero;"/><path d="M1062.85,289.364l-22.641,0l-9,-23.414l-41.203,0l-8.508,23.414l-22.078,0l40.148,-103.078l22.008,0l41.274,103.078Zm-38.321,-40.782l-14.203,-38.25l-13.922,38.25l28.125,0Z" style="fill-rule:nonzero;"/><path d="M1086.41,289.364l0,-85.641l-30.586,0l0,-17.437l81.914,0l0,17.437l-30.515,0l0,85.641l-20.813,0Z" style="fill-rule:nonzero;"/><rect x="1150.53" y="186.286" width="20.813" height="103.078" style="fill-rule:nonzero;"/><path d="M1186.95,238.457c0,-10.5 1.57,-19.312 4.711,-26.437c2.344,-5.25 5.543,-9.961 9.598,-14.133c4.054,-4.172 8.496,-7.266 13.324,-9.281c6.422,-2.719 13.828,-4.078 22.219,-4.078c15.187,0 27.34,4.711 36.457,14.133c9.117,9.421 13.676,22.523 13.676,39.304c0,16.641 -4.524,29.66 -13.571,39.059c-9.047,9.398 -21.14,14.097 -36.281,14.097c-15.328,0 -27.516,-4.675 -36.563,-14.027c-9.046,-9.351 -13.57,-22.23 -13.57,-38.637Zm21.445,-0.703c0,11.672 2.696,20.52 8.086,26.543c5.391,6.024 12.235,9.035 20.532,9.035c8.297,0 15.105,-2.988 20.425,-8.964c5.321,-5.977 7.981,-14.942 7.981,-26.895c0,-11.812 -2.59,-20.625 -7.77,-26.437c-5.179,-5.813 -12.058,-8.719 -20.636,-8.719c-8.578,0 -15.493,2.941 -20.743,8.824c-5.25,5.883 -7.875,14.754 -7.875,26.613Z" style="fill-rule:nonzero;"/><path d="M1303.39,289.364l0,-103.078l20.25,0l42.187,68.835l0,-68.835l19.336,0l0,103.078l-20.883,0l-41.554,-67.219l0,67.219l-19.336,0Z" style="fill-rule:nonzero;"/><path d="M1401.9,255.825l20.25,-1.969c1.219,6.797 3.692,11.789 7.418,14.976c3.727,3.188 8.754,4.782 15.082,4.782c6.704,0 11.754,-1.418 15.153,-4.254c3.398,-2.836 5.097,-6.153 5.097,-9.949c0,-2.438 -0.714,-4.512 -2.144,-6.223c-1.43,-1.711 -3.926,-3.199 -7.488,-4.465c-2.438,-0.844 -7.993,-2.344 -16.664,-4.5c-11.157,-2.766 -18.985,-6.164 -23.485,-10.195c-6.328,-5.672 -9.492,-12.586 -9.492,-20.742c0,-5.25 1.488,-10.161 4.465,-14.731c2.976,-4.57 7.265,-8.051 12.867,-10.441c5.602,-2.391 12.363,-3.586 20.285,-3.586c12.938,0 22.676,2.836 29.215,8.508c6.539,5.671 9.973,13.242 10.301,22.71l-20.813,0.915c-0.89,-5.297 -2.8,-9.106 -5.73,-11.426c-2.93,-2.321 -7.324,-3.481 -13.184,-3.481c-6.047,0 -10.781,1.242 -14.203,3.727c-2.203,1.594 -3.305,3.726 -3.305,6.398c0,2.438 1.032,4.524 3.094,6.258c2.625,2.203 9,4.5 19.125,6.891c10.125,2.39 17.613,4.863 22.465,7.418c4.852,2.554 8.648,6.047 11.391,10.476c2.742,4.43 4.113,9.903 4.113,16.418c0,5.906 -1.641,11.438 -4.922,16.594c-3.281,5.156 -7.922,8.988 -13.922,11.496c-6,2.508 -13.476,3.762 -22.429,3.762c-13.032,0 -23.04,-3.012 -30.024,-9.035c-6.984,-6.024 -11.156,-14.801 -12.516,-26.332Z" style="fill-rule:nonzero;"/></g><g><path d="M524.843,437.1l10.202,-1.093c0.614,3.774 1.86,6.546 3.737,8.316c1.878,1.769 4.41,2.654 7.599,2.654c3.377,0 5.921,-0.787 7.633,-2.362c1.713,-1.574 2.569,-3.416 2.569,-5.524c0,-1.353 -0.361,-2.505 -1.081,-3.455c-0.72,-0.95 -1.978,-1.776 -3.772,-2.479c-1.228,-0.468 -4.027,-1.301 -8.396,-2.498c-5.621,-1.536 -9.564,-3.423 -11.832,-5.661c-3.188,-3.149 -4.782,-6.988 -4.782,-11.516c0,-2.915 0.75,-5.642 2.25,-8.179c1.499,-2.538 3.66,-4.47 6.482,-5.798c2.822,-1.327 6.229,-1.991 10.22,-1.991c6.518,0 11.424,1.575 14.719,4.724c3.294,3.149 5.024,7.353 5.189,12.61l-10.485,0.507c-0.449,-2.941 -1.411,-5.055 -2.887,-6.343c-1.476,-1.289 -3.69,-1.933 -6.642,-1.933c-3.047,0 -5.432,0.69 -7.156,2.069c-1.11,0.885 -1.665,2.069 -1.665,3.553c0,1.353 0.52,2.511 1.559,3.474c1.322,1.223 4.534,2.499 9.635,3.826c5.101,1.327 8.874,2.7 11.318,4.119c2.444,1.418 4.357,3.357 5.739,5.817c1.381,2.459 2.072,5.498 2.072,9.115c0,3.28 -0.826,6.351 -2.48,9.214c-1.653,2.862 -3.991,4.99 -7.013,6.382c-3.023,1.393 -6.79,2.089 -11.301,2.089c-6.565,0 -11.607,-1.672 -15.126,-5.016c-3.519,-3.345 -5.62,-8.218 -6.305,-14.621Z" style="fill-rule:nonzero;"/><path d="M587.579,455.722l0,-47.55l-15.41,0l0,-9.682l41.269,0l0,9.682l-15.374,0l0,47.55l-10.485,0Z" style="fill-rule:nonzero;"/><path d="M620.204,455.722l0,-57.232l38.506,0l0,9.682l-28.02,0l0,12.688l26.072,0l0,9.643l-26.072,0l0,15.576l29.012,0l0,9.643l-39.498,0Z" style="fill-rule:nonzero;"/><path d="M668.877,455.722l0,-56.763l10.485,0l0,47.12l26.072,0l0,9.643l-36.557,0Z" style="fill-rule:nonzero;"/><rect x="712.59" y="398.49" width="10.486" height="57.232" style="fill-rule:nonzero;"/><path d="M730.94,427.458c0,-5.83 0.791,-10.723 2.373,-14.679c1.181,-2.915 2.793,-5.531 4.836,-7.847c2.042,-2.316 4.28,-4.034 6.712,-5.153c3.236,-1.51 6.967,-2.265 11.194,-2.265c7.652,0 13.774,2.616 18.368,7.847c4.593,5.232 6.89,12.506 6.89,21.823c0,9.24 -2.279,16.468 -6.837,21.687c-4.558,5.218 -10.651,7.827 -18.279,7.827c-7.722,0 -13.863,-2.596 -18.42,-7.788c-4.558,-5.193 -6.837,-12.343 -6.837,-21.452Zm10.804,-0.391c0,6.481 1.358,11.393 4.074,14.738c2.716,3.344 6.164,5.016 10.344,5.016c4.18,0 7.61,-1.659 10.29,-4.977c2.681,-3.319 4.021,-8.296 4.021,-14.933c0,-6.559 -1.305,-11.451 -3.914,-14.679c-2.61,-3.227 -6.076,-4.841 -10.397,-4.841c-4.322,0 -7.805,1.634 -10.45,4.9c-2.645,3.266 -3.968,8.192 -3.968,14.776Z" style="fill-rule:nonzero;"/><path d="M786.839,437.1l10.202,-1.093c0.614,3.774 1.86,6.546 3.737,8.316c1.878,1.769 4.411,2.654 7.599,2.654c3.377,0 5.921,-0.787 7.634,-2.362c1.712,-1.574 2.568,-3.416 2.568,-5.524c0,-1.353 -0.36,-2.505 -1.081,-3.455c-0.72,-0.95 -1.977,-1.776 -3.772,-2.479c-1.228,-0.468 -4.027,-1.301 -8.396,-2.498c-5.62,-1.536 -9.564,-3.423 -11.831,-5.661c-3.189,-3.149 -4.783,-6.988 -4.783,-11.516c0,-2.915 0.75,-5.642 2.25,-8.179c1.499,-2.538 3.66,-4.47 6.482,-5.798c2.822,-1.327 6.229,-1.991 10.22,-1.991c6.518,0 11.424,1.575 14.719,4.724c3.294,3.149 5.024,7.353 5.19,12.61l-10.486,0.507c-0.449,-2.941 -1.411,-5.055 -2.887,-6.343c-1.476,-1.289 -3.69,-1.933 -6.642,-1.933c-3.047,0 -5.432,0.69 -7.156,2.069c-1.11,0.885 -1.665,2.069 -1.665,3.553c0,1.353 0.52,2.511 1.559,3.474c1.323,1.223 4.534,2.499 9.635,3.826c5.101,1.327 8.874,2.7 11.318,4.119c2.445,1.418 4.357,3.357 5.739,5.817c1.382,2.459 2.072,5.498 2.072,9.115c0,3.28 -0.826,6.351 -2.479,9.214c-1.653,2.862 -3.991,4.99 -7.014,6.382c-3.023,1.393 -6.79,2.089 -11.301,2.089c-6.565,0 -11.607,-1.672 -15.126,-5.016c-3.518,-3.345 -5.62,-8.218 -6.305,-14.621Z" style="fill-rule:nonzero;"/><path d="M855.384,437.1l10.203,-1.093c0.614,3.774 1.859,6.546 3.737,8.316c1.877,1.769 4.41,2.654 7.598,2.654c3.377,0 5.922,-0.787 7.634,-2.362c1.712,-1.574 2.568,-3.416 2.568,-5.524c0,-1.353 -0.36,-2.505 -1.08,-3.455c-0.72,-0.95 -1.978,-1.776 -3.773,-2.479c-1.228,-0.468 -4.026,-1.301 -8.395,-2.498c-5.621,-1.536 -9.565,-3.423 -11.832,-5.661c-3.188,-3.149 -4.782,-6.988 -4.782,-11.516c0,-2.915 0.75,-5.642 2.249,-8.179c1.5,-2.538 3.661,-4.47 6.483,-5.798c2.822,-1.327 6.229,-1.991 10.22,-1.991c6.518,0 11.424,1.575 14.718,4.724c3.295,3.149 5.025,7.353 5.19,12.61l-10.485,0.507c-0.449,-2.941 -1.412,-5.055 -2.888,-6.343c-1.476,-1.289 -3.69,-1.933 -6.642,-1.933c-3.046,0 -5.431,0.69 -7.155,2.069c-1.11,0.885 -1.665,2.069 -1.665,3.553c0,1.353 0.519,2.511 1.559,3.474c1.322,1.223 4.534,2.499 9.635,3.826c5.101,1.327 8.874,2.7 11.318,4.119c2.444,1.418 4.357,3.357 5.739,5.817c1.381,2.459 2.072,5.498 2.072,9.115c0,3.28 -0.827,6.351 -2.48,9.214c-1.653,2.862 -3.991,4.99 -7.014,6.382c-3.023,1.393 -6.789,2.089 -11.3,2.089c-6.565,0 -11.607,-1.672 -15.126,-5.016c-3.519,-3.345 -5.621,-8.218 -6.306,-14.621Z" style="fill-rule:nonzero;"/><path d="M906.43,455.722l0,-57.232l16.827,0c6.376,0 10.533,0.287 12.469,0.859c2.976,0.859 5.467,2.727 7.475,5.602c2.007,2.876 3.011,6.592 3.011,11.146c0,3.514 -0.579,6.468 -1.736,8.862c-1.157,2.394 -2.627,4.275 -4.41,5.641c-1.783,1.367 -3.596,2.271 -5.438,2.713c-2.503,0.547 -6.128,0.82 -10.875,0.82l-6.837,0l0,21.589l-10.486,0Zm10.486,-47.55l0,16.241l5.739,0c4.132,0 6.896,-0.3 8.289,-0.898c1.393,-0.599 2.485,-1.536 3.277,-2.811c0.791,-1.276 1.186,-2.759 1.186,-4.451c0,-2.082 -0.555,-3.8 -1.665,-5.153c-1.11,-1.353 -2.515,-2.199 -4.215,-2.537c-1.252,-0.261 -3.767,-0.391 -7.545,-0.391l-5.066,0Z" style="fill-rule:nonzero;"/><path d="M968.458,455.722l0,-24.087l-19.023,-33.145l12.292,0l12.222,22.643l11.973,-22.643l12.08,0l-19.094,33.223l0,24.009l-10.45,0Z" style="fill-rule:nonzero;"/><path d="M1003.24,455.722l0,-57.232l22.069,0c5.55,0 9.583,0.514 12.098,1.542c2.515,1.029 4.528,2.857 6.04,5.485c1.511,2.629 2.267,5.635 2.267,9.019c0,4.294 -1.146,7.84 -3.436,10.638c-2.291,2.798 -5.715,4.561 -10.273,5.29c2.267,1.457 4.138,3.058 5.614,4.801c1.476,1.744 3.466,4.841 5.969,9.292l6.341,11.165l-12.54,0l-7.581,-12.454c-2.692,-4.45 -4.534,-7.254 -5.526,-8.412c-0.992,-1.159 -2.043,-1.952 -3.153,-2.382c-1.11,-0.429 -2.869,-0.644 -5.278,-0.644l-2.125,0l0,23.892l-10.486,0Zm10.486,-33.027l7.758,0c5.03,0 8.171,-0.234 9.422,-0.703c1.252,-0.468 2.232,-1.275 2.941,-2.42c0.708,-1.146 1.062,-2.577 1.062,-4.295c0,-1.926 -0.466,-3.481 -1.399,-4.665c-0.933,-1.184 -2.249,-1.932 -3.95,-2.245c-0.85,-0.13 -3.4,-0.195 -7.651,-0.195l-8.183,0l0,14.523Z" style="fill-rule:nonzero;"/><path d="M1053.48,427.458c0,-5.83 0.791,-10.723 2.373,-14.679c1.181,-2.915 2.793,-5.531 4.835,-7.847c2.043,-2.316 4.281,-4.034 6.713,-5.153c3.236,-1.51 6.967,-2.265 11.194,-2.265c7.652,0 13.774,2.616 18.368,7.847c4.593,5.232 6.89,12.506 6.89,21.823c0,9.24 -2.279,16.468 -6.837,21.687c-4.558,5.218 -10.651,7.827 -18.279,7.827c-7.723,0 -13.863,-2.596 -18.421,-7.788c-4.557,-5.193 -6.836,-12.343 -6.836,-21.452Zm10.804,-0.391c0,6.481 1.358,11.393 4.074,14.738c2.716,3.344 6.163,5.016 10.344,5.016c4.18,0 7.61,-1.659 10.29,-4.977c2.681,-3.319 4.021,-8.296 4.021,-14.933c0,-6.559 -1.305,-11.451 -3.915,-14.679c-2.609,-3.227 -6.075,-4.841 -10.396,-4.841c-4.322,0 -7.806,1.634 -10.451,4.9c-2.645,3.266 -3.967,8.192 -3.967,14.776Z" style="fill-rule:nonzero;"/><path d="M1136.19,434.68l0,-9.643l22.6,0l0,22.799c-2.196,2.342 -5.378,4.405 -9.547,6.188c-4.168,1.783 -8.389,2.674 -12.664,2.674c-5.431,0 -10.166,-1.256 -14.205,-3.767c-4.038,-2.512 -7.073,-6.103 -9.104,-10.775c-2.031,-4.672 -3.046,-9.753 -3.046,-15.245c0,-5.96 1.133,-11.256 3.401,-15.889c2.267,-4.633 5.585,-8.185 9.954,-10.658c3.33,-1.9 7.474,-2.85 12.434,-2.85c6.447,0 11.483,1.49 15.108,4.47c3.625,2.98 5.957,7.099 6.996,12.356l-10.414,2.148c-0.733,-2.811 -2.108,-5.03 -4.127,-6.657c-2.02,-1.626 -4.541,-2.44 -7.563,-2.44c-4.582,0 -8.225,1.601 -10.929,4.802c-2.704,3.201 -4.056,7.951 -4.056,14.25c0,6.792 1.37,11.887 4.109,15.283c2.74,3.397 6.33,5.095 10.769,5.095c2.197,0 4.399,-0.475 6.607,-1.425c2.208,-0.95 4.103,-2.101 5.685,-3.455l0,-7.261l-12.008,0Z" style="fill-rule:nonzero;"/><path d="M1168.75,455.722l0,-56.763l10.486,0l0,47.12l26.072,0l0,9.643l-36.558,0Z" style="fill-rule:nonzero;"/><path d="M1210.65,427.458c0,-5.83 0.791,-10.723 2.373,-14.679c1.181,-2.915 2.793,-5.531 4.836,-7.847c2.043,-2.316 4.28,-4.034 6.713,-5.153c3.235,-1.51 6.966,-2.265 11.194,-2.265c7.651,0 13.774,2.616 18.367,7.847c4.593,5.232 6.89,12.506 6.89,21.823c0,9.24 -2.279,16.468 -6.837,21.687c-4.558,5.218 -10.651,7.827 -18.279,7.827c-7.722,0 -13.862,-2.596 -18.42,-7.788c-4.558,-5.193 -6.837,-12.343 -6.837,-21.452Zm10.804,-0.391c0,6.481 1.358,11.393 4.074,14.738c2.716,3.344 6.164,5.016 10.344,5.016c4.18,0 7.61,-1.659 10.291,-4.977c2.68,-3.319 4.02,-8.296 4.02,-14.933c0,-6.559 -1.305,-11.451 -3.914,-14.679c-2.61,-3.227 -6.075,-4.841 -10.397,-4.841c-4.322,0 -7.805,1.634 -10.45,4.9c-2.645,3.266 -3.968,8.192 -3.968,14.776Z" style="fill-rule:nonzero;"/><path d="M1269.14,398.49l10.486,0l0,30.998c0,4.919 0.13,8.107 0.389,9.564c0.449,2.343 1.518,4.223 3.206,5.641c1.689,1.419 3.997,2.128 6.926,2.128c2.975,0 5.219,-0.67 6.73,-2.01c1.512,-1.341 2.421,-2.987 2.728,-4.939c0.307,-1.952 0.46,-5.192 0.46,-9.721l0,-31.661l10.486,0l0,30.061c0,6.871 -0.284,11.724 -0.85,14.561c-0.567,2.837 -1.612,5.232 -3.135,7.184c-1.524,1.952 -3.56,3.507 -6.111,4.665c-2.551,1.158 -5.88,1.737 -9.99,1.737c-4.959,0 -8.72,-0.631 -11.282,-1.893c-2.562,-1.263 -4.588,-2.902 -6.075,-4.919c-1.488,-2.017 -2.468,-4.132 -2.941,-6.344c-0.684,-3.28 -1.027,-8.12 -1.027,-14.523l0,-30.529Z" style="fill-rule:nonzero;"/></g><rect x="264.103" y="435.707" width="245.45" height="20.583"/><rect x="1325.53" y="434.732" width="158.217" height="21.207"/><rect x="264.103" y="401.54" width="245.45" height="20.583"/><rect x="1325.53" y="400.565" width="157.631" height="21.831"/><clipPath id="_clip1"><rect x="0" y="174.167" width="372.804" height="346.384"/></clipPath><g clip-path="url(#_clip1)"><g><path d="M15.173,502.668c114.617,35.531 216.206,12.299 307.311,-58.211l50.022,-215.848c-98.906,49.099 -199.741,83.541 -304.666,86.873l-52.667,187.186Z" style="fill:#fff;"/><path d="M108.596,507.113l115.245,-110.974l-45.902,-1.975l0.439,-11.458l82.238,-83.825l-60.103,-1.027l1.293,-10.976l91.591,-111.714l-90.276,-0.997l-90.835,158.679l50.372,0.75l6.166,7.44l-67.436,75.982l51.887,0.675l5.986,7.349l-53.737,79.149l3.072,2.922Z" style="fill:#fff;"/><path d="M308.946,433.321l49.455,-216.147c-46.777,26.489 -96.421,49.457 -152.315,64.76l-4.468,4.918l-1.265,10.403l60.845,1.428l-82.573,83.166l-0.72,12.682l45.688,1.224l-115.01,111.96l-3.197,-4.004l53.696,-78.329l-5.717,-8.59l-51.018,-0.693l66.497,-75.992l-5.962,-6.272l-49.975,-1.642l22.147,-39.9l-84.995,1.178l-50.059,196.767c131.006,37.485 231.379,13.258 308.946,-56.917Z" style="fill:#fff200;"/><path d="M123.828,485.718l89.143,-85.802l-39.189,-0.689l0.05,-18.795l76.269,-78.253l-53.481,-0.823l0.774,-17.641l86.158,-105l-75.692,-0.686l-86.683,150.119l44.784,1.482l9.045,9.658l-62.415,72.591l45.127,0.681l8.121,12.091l-42.011,61.067Z" style="fill:#ed2024;"/></g></g></svg>