<?xml version="1.0" encoding="UTF-8" standalone="no"?>
<!DOCTYPE svg PUBLIC "-//W3C//DTD SVG 1.1//EN" "http://www.w3.org/Graphics/SVG/1.1/DTD/svg11.dtd">
<svg width="100%" height="100%" viewBox="0 0 1518 521" version="1.1" xmlns="http://www.w3.org/2000/svg" xmlns:xlink="http://www.w3.org/1999/xlink" xml:space="preserve" xmlns:serif="http://www.serif.com/" style="fill-rule:evenodd;clip-rule:evenodd;stroke-linejoin:round;stroke-miterlimit:2;">
    <g>
        <path d="M0,104.836L0,1.758L20.813,1.758L20.813,42.328L61.594,42.328L61.594,1.758L82.406,1.758L82.406,104.836L61.594,104.836L61.594,59.766L20.813,59.766L20.813,104.836L-0,104.836Z" style="fill-rule:nonzero;"/>
        <path d="M152.578,1.758L189.422,104.836L166.852,104.836L140.766,28.617L115.523,104.836L93.445,104.836L130.359,1.758L152.578,1.758Z" style="fill-rule:nonzero;"/>
        <path d="M199.969,104.836L199.969,1.758L276.398,1.758L276.398,19.195L220.781,19.195L220.781,42.047L272.531,42.047L272.531,59.414L220.781,59.414L220.781,87.469L278.367,87.469L278.367,104.836L199.969,104.836Z" style="fill-rule:nonzero;"/>
        <path d="M296.297,104.836L296.297,1.758L317.109,1.758L317.109,47.531L359.156,1.758L387.141,1.758L348.328,41.906L389.25,104.836L362.32,104.836L333.984,56.461L317.109,73.688L317.109,104.836L296.297,104.836Z" style="fill-rule:nonzero;"/>
        <path d="M423.211,104.836L423.211,19.195L392.625,19.195L392.625,1.758L474.539,1.758L474.539,19.195L444.023,19.195L444.023,104.836L423.211,104.836Z" style="fill-rule:nonzero;"/>
        <path d="M487.969,104.836L487.969,1.758L521.367,1.758C534.023,1.758 542.273,2.273 546.117,3.305C552.023,4.852 556.969,8.215 560.953,13.395C564.938,18.574 566.93,25.266 566.93,33.469C566.93,39.797 565.781,45.117 563.484,49.43C561.188,53.742 558.27,57.129 554.73,59.59C551.191,62.051 547.594,63.68 543.938,64.477C538.969,65.461 531.773,65.953 522.352,65.953L508.781,65.953L508.781,104.836L487.969,104.836ZM508.781,19.195L508.781,48.445L520.172,48.445C528.375,48.445 533.859,47.906 536.625,46.828C539.391,45.75 541.559,44.063 543.129,41.766C544.699,39.469 545.484,36.797 545.484,33.75C545.484,30 544.383,26.906 542.18,24.469C539.977,22.031 537.188,20.508 533.813,19.898C531.328,19.43 526.336,19.195 518.836,19.195L508.781,19.195Z" style="fill-rule:nonzero;"/>
        <path d="M579.797,53.93C579.797,43.43 581.367,34.617 584.508,27.492C586.852,22.242 590.051,17.531 594.105,13.359C598.16,9.187 602.602,6.094 607.43,4.078C613.852,1.359 621.258,0 629.648,0C644.836,0 656.988,4.711 666.105,14.133C675.223,23.555 679.781,36.656 679.781,53.438C679.781,70.078 675.258,83.098 666.211,92.496C657.164,101.895 645.07,106.594 629.93,106.594C614.602,106.594 602.414,101.918 593.367,92.566C584.32,83.215 579.797,70.336 579.797,53.93ZM601.242,53.227C601.242,64.898 603.938,73.746 609.328,79.77C614.719,85.793 621.563,88.805 629.859,88.805C638.156,88.805 644.965,85.816 650.285,79.84C655.605,73.863 658.266,64.898 658.266,52.945C658.266,41.133 655.676,32.32 650.496,26.508C645.316,20.695 638.438,17.789 629.859,17.789C621.281,17.789 614.367,20.73 609.117,26.613C603.867,32.496 601.242,41.367 601.242,53.227Z" style="fill-rule:nonzero;"/>
        <path d="M740.812,1.758L777.656,104.836L755.086,104.836L729,28.617L703.758,104.836L681.68,104.836L718.594,1.758L740.812,1.758Z" style="fill-rule:nonzero;"/>
        <path d="M780.117,53.93C780.117,43.43 781.687,34.617 784.828,27.492C787.172,22.242 790.371,17.531 794.426,13.359C798.48,9.187 802.922,6.094 807.75,4.078C814.172,1.359 821.578,0 829.969,0C845.156,0 857.309,4.711 866.426,14.133C875.543,23.555 880.102,36.656 880.102,53.438C880.102,70.078 875.578,83.098 866.531,92.496C857.484,101.895 845.391,106.594 830.25,106.594C814.922,106.594 802.734,101.918 793.687,92.566C784.641,83.215 780.117,70.336 780.117,53.93ZM801.562,53.227C801.562,64.898 804.258,73.746 809.648,79.77C815.039,85.793 821.883,88.805 830.18,88.805C838.477,88.805 845.285,85.816 850.605,79.84C855.926,73.863 858.586,64.898 858.586,52.945C858.586,41.133 855.996,32.32 850.816,26.508C845.637,20.695 838.758,17.789 830.18,17.789C821.602,17.789 814.688,20.73 809.437,26.613C804.187,32.496 801.562,41.367 801.562,53.227Z" style="fill-rule:nonzero;"/>
        <path d="M896.695,1.758L969.258,1.758L969.258,19.266L917.508,19.266L917.508,104.836L896.695,104.836L896.695,1.758Z" style="fill-rule:nonzero;"/>
        <rect x="982.266" y="1.758" width="20.813" height="103.078"/>
        <path d="M1023.19,104.836L1023.19,1.758L1044,1.758L1044,47.531L1086.05,1.758L1114.03,1.758L1075.22,41.906L1116.14,104.836L1089.21,104.836L1060.88,56.461L1044,73.688L1044,104.836L1023.19,104.836Z" style="fill-rule:nonzero;"/>
        <path d="M1126.9,104.836L1126.9,1.758L1203.33,1.758L1203.33,19.195L1147.71,19.195L1147.71,42.047L1199.46,42.047L1199.46,59.414L1147.71,59.414L1147.71,87.469L1205.3,87.469L1205.3,104.836L1126.9,104.836Z" style="fill-rule:nonzero;"/>
        <path d="M1220.13,1.758L1291.5,1.758L1291.5,19.195L1245.79,19.195L1272.44,50.977L1243.05,87.469L1293.68,87.469L1293.68,104.836L1218.79,104.836L1218.79,85.57L1246.43,50.977L1220.13,20.32L1220.13,1.758Z" style="fill-rule:nonzero;"/>
    </g>
    <g>
        <path d="M395.381,289.364L395.381,186.286L471.81,186.286L471.81,203.723L416.193,203.723L416.193,226.575L467.943,226.575L467.943,243.942L416.193,243.942L416.193,271.996L473.779,271.996L473.779,289.364L395.381,289.364Z" style="fill-rule:nonzero;"/>
        <path d="M491.779,186.286L564.342,186.286L564.342,203.793L512.592,203.793L512.592,289.364L491.779,289.364L491.779,186.286Z" style="fill-rule:nonzero;"/>
        <path d="M578.263,289.364L578.263,186.286L599.076,186.286L599.076,232.059L641.123,186.286L669.107,186.286L630.295,226.434L671.217,289.364L644.287,289.364L615.951,240.989L599.076,258.215L599.076,289.364L578.263,289.364Z" style="fill-rule:nonzero;"/>
        <path d="M774.927,289.364L752.287,289.364L743.287,265.95L702.084,265.95L693.576,289.364L671.498,289.364L711.646,186.286L733.654,186.286L774.927,289.364ZM736.607,248.582L722.404,210.332L708.482,248.582L736.607,248.582Z" style="fill-rule:nonzero;"/>
        <path d="M797.217,289.364L797.217,203.723L766.631,203.723L766.631,186.286L848.545,186.286L848.545,203.723L818.029,203.723L818.029,289.364L797.217,289.364Z" style="fill-rule:nonzero;"/>
        <path d="M944.24,289.364L921.599,289.364L912.599,265.95L871.396,265.95L862.888,289.364L840.81,289.364L880.959,186.286L902.967,186.286L944.24,289.364ZM905.92,248.582L891.717,210.332L877.795,248.582L905.92,248.582Z" style="fill-rule:nonzero;"/>
        <path d="M952.467,186.286L1023.83,186.286L1023.83,203.723L978.131,203.723L1004.78,235.504L975.388,271.996L1026.01,271.996L1026.01,289.364L951.131,289.364L951.131,270.098L978.763,235.504L952.467,204.848L952.467,186.286Z" style="fill-rule:nonzero;"/>
        <path d="M1064.9,289.364L1064.9,203.723L1034.31,203.723L1034.31,186.286L1116.23,186.286L1116.23,203.723L1085.71,203.723L1085.71,289.364L1064.9,289.364Z" style="fill-rule:nonzero;"/>
        <path d="M1211.92,289.364L1189.28,289.364L1180.28,265.95L1139.08,265.95L1130.57,289.364L1108.49,289.364L1148.64,186.286L1170.65,186.286L1211.92,289.364ZM1173.6,248.582L1159.4,210.332L1145.47,248.582L1173.6,248.582Z" style="fill-rule:nonzero;"/>
        <path d="M1220.15,186.286L1291.52,186.286L1291.52,203.723L1245.81,203.723L1272.46,235.504L1243.07,271.996L1293.7,271.996L1293.7,289.364L1218.81,289.364L1218.81,270.098L1246.45,235.504L1220.15,204.848L1220.15,186.286Z" style="fill-rule:nonzero;"/>
        <path d="M1309.37,289.364L1309.37,186.286L1385.8,186.286L1385.8,203.723L1330.18,203.723L1330.18,226.575L1381.93,226.575L1381.93,243.942L1330.18,243.942L1330.18,271.996L1387.77,271.996L1387.77,289.364L1309.37,289.364Z" style="fill-rule:nonzero;"/>
        <rect x="1404.79" y="186.286" width="20.813" height="103.078"/>
        <path d="M1442.62,186.286L1513.99,186.286L1513.99,203.723L1468.28,203.723L1494.93,235.504L1465.54,271.996L1516.17,271.996L1516.17,289.364L1441.28,289.364L1441.28,270.098L1468.92,235.504L1442.62,204.848L1442.62,186.286Z" style="fill-rule:nonzero;"/>
    </g>
    <g transform="matrix(10.8742,0,0,1,-5340.04,2.53728)">
        <g>
            <path d="M543.026,399.009L546.307,399.009L546.307,407.728L544.206,407.728L545.431,423.619L544.08,441.865L546.407,441.865L546.407,450.548L542.964,450.548L542.964,440.916L544.235,423.619L543.026,408.291L543.026,399.009Z" style="fill-rule:nonzero;"/>
            <path d="M547.807,450.548L547.807,399.009L551.596,399.009L551.596,450.548L550.639,450.548L550.639,407.728L548.764,407.728L548.764,450.548L547.807,450.548Z" style="fill-rule:nonzero;"/>
            <path d="M554.479,450.548L554.479,428.857L552.743,399.009L553.865,399.009L554.98,419.4L556.073,399.009L557.175,399.009L555.433,428.927L555.433,450.548L554.479,450.548Z" style="fill-rule:nonzero;"/>
            <path d="M558.313,450.548L558.313,399.009L559.848,399.009C560.43,399.009 560.81,399.267 560.986,399.783C561.258,400.556 561.485,402.238 561.668,404.828C561.852,407.418 561.943,410.763 561.943,414.865C561.943,418.029 561.89,420.689 561.785,422.845C561.679,425.002 561.545,426.695 561.382,427.925C561.22,429.156 561.054,429.97 560.886,430.369C560.658,430.861 560.327,431.107 559.894,431.107L559.27,431.107L559.27,450.548L558.313,450.548ZM559.27,407.728L559.27,422.353L559.793,422.353C560.171,422.353 560.423,422.084 560.55,421.545C560.677,421.005 560.777,420.162 560.849,419.013C560.921,417.865 560.957,416.529 560.957,415.005C560.957,413.13 560.907,411.584 560.805,410.365C560.704,409.146 560.576,408.384 560.421,408.08C560.306,407.845 560.077,407.728 559.732,407.728L559.27,407.728Z" style="fill-rule:nonzero;"/>
            <path d="M563.197,425.095C563.197,419.845 563.269,415.439 563.414,411.877C563.521,409.252 563.669,406.896 563.855,404.81C564.041,402.724 564.246,401.177 564.468,400.17C564.763,398.81 565.103,398.13 565.489,398.13C566.188,398.13 566.746,400.486 567.166,405.197C567.585,409.908 567.794,416.459 567.794,424.849C567.794,433.17 567.586,439.679 567.17,444.379C566.754,449.078 566.198,451.427 565.502,451.427C564.797,451.427 564.237,449.089 563.821,444.414C563.405,439.738 563.197,433.298 563.197,425.095ZM564.183,424.744C564.183,430.58 564.307,435.004 564.555,438.015C564.803,441.027 565.117,442.533 565.499,442.533C565.88,442.533 566.194,441.039 566.438,438.05C566.683,435.062 566.805,430.58 566.805,424.603C566.805,418.697 566.686,414.291 566.448,411.384C566.21,408.478 565.893,407.025 565.499,407.025C565.105,407.025 564.787,408.496 564.545,411.437C564.304,414.379 564.183,418.814 564.183,424.744Z" style="fill-rule:nonzero;"/>
            <path d="M569.22,399.009L572.556,399.009L572.556,407.763L570.176,407.763L570.176,450.548L569.22,450.548L569.22,399.009Z" style="fill-rule:nonzero;"/>
            <path d="M575.362,399.009L577.056,450.548L576.018,450.548L574.818,412.439L573.658,450.548L572.643,450.548L574.34,399.009L575.362,399.009Z" style="fill-rule:nonzero;"/>
            <path d="M577.831,425.095C577.831,419.845 577.903,415.439 578.048,411.877C578.155,409.252 578.302,406.896 578.489,404.81C578.675,402.724 578.88,401.177 579.102,400.17C579.397,398.81 579.737,398.13 580.123,398.13C580.821,398.13 581.38,400.486 581.799,405.197C582.219,409.908 582.428,416.459 582.428,424.849C582.428,433.17 582.22,439.679 581.804,444.379C581.388,449.078 580.832,451.427 580.136,451.427C579.431,451.427 578.871,449.089 578.455,444.414C578.039,439.738 577.831,433.298 577.831,425.095ZM578.817,424.744C578.817,430.58 578.941,435.004 579.189,438.015C579.437,441.027 579.751,442.533 580.133,442.533C580.514,442.533 580.827,441.039 581.072,438.05C581.317,435.062 581.439,430.58 581.439,424.603C581.439,418.697 581.32,414.291 581.082,411.384C580.844,408.478 580.527,407.025 580.133,407.025C579.738,407.025 579.42,408.496 579.179,411.437C578.938,414.379 578.817,418.814 578.817,424.744Z" style="fill-rule:nonzero;"/>
            <path d="M584.898,450.548L584.898,428.857L583.162,399.009L584.283,399.009L585.399,419.4L586.492,399.009L587.594,399.009L585.851,428.927L585.851,450.548L584.898,450.548Z" style="fill-rule:nonzero;"/>
            <path d="M591.236,450.548L591.236,399.009L592.193,399.009L592.193,419.295L594.068,419.295L594.068,399.009L595.025,399.009L595.025,450.548L594.068,450.548L594.068,428.013L592.193,428.013L592.193,450.548L591.236,450.548Z" style="fill-rule:nonzero;"/>
            <path d="M598.914,399.009L600.608,450.548L599.57,450.548L598.371,412.439L597.21,450.548L596.195,450.548L597.892,399.009L598.914,399.009Z" style="fill-rule:nonzero;"/>
            <path d="M601.742,450.548L601.742,399.009L603.174,399.009L604.034,434.166L604.885,399.009L606.32,399.009L606.32,450.548L605.431,450.548L605.431,409.978L604.49,450.548L603.569,450.548L602.631,409.978L602.631,450.548L601.742,450.548Z" style="fill-rule:nonzero;"/>
            <path d="M607.933,450.548L607.933,399.009L611.447,399.009L611.447,407.728L608.89,407.728L608.89,419.154L611.269,419.154L611.269,427.838L608.89,427.838L608.89,441.865L611.538,441.865L611.538,450.548L607.933,450.548Z" style="fill-rule:nonzero;"/>
        </g>
    </g>
    <rect x="286.818" y="435.707" width="245.45" height="20.583"/>
    <rect x="1348.25" y="434.732" width="169.63" height="20.583"/>
    <rect x="286.818" y="401.54" width="245.45" height="20.583"/>
    <rect x="1348.25" y="400.565" width="169.63" height="20.583"/>
    <g>
        <g>
            <path d="M37.889,502.668C152.505,538.199 254.094,514.967 345.199,444.457L395.221,228.609C296.315,277.708 195.481,312.15 90.556,315.482L37.889,502.668Z" style="fill:white;"/>
            <path d="M131.312,507.113L246.556,396.139L200.655,394.164L201.093,382.706L283.332,298.881L223.228,297.854L224.521,286.878L316.112,175.164L225.836,174.167L135.001,332.846L185.374,333.596L191.54,341.036L124.104,417.018L175.991,417.693L181.976,425.042L128.24,504.191L131.312,507.113Z" style="fill:white;"/>
            <path d="M331.661,433.321L381.117,217.174C334.34,243.663 284.695,266.631 228.801,281.934L224.334,286.852L223.068,297.255L283.913,298.683L201.34,381.849L200.621,394.531L246.308,395.755L131.299,507.715L128.102,503.711L181.797,425.382L176.08,416.792L125.062,416.099L191.559,340.107L185.597,333.835L135.622,332.193L157.769,292.293L72.774,293.471L22.716,490.238C153.721,527.723 254.095,503.496 331.661,433.321Z" style="fill:rgb(255,242,0);"/>
            <path d="M146.544,485.718L235.686,399.916L196.498,399.227L196.548,380.432L272.817,302.179L219.336,301.356L220.109,283.715L306.268,178.715L230.576,178.029L143.893,328.148L188.676,329.63L197.722,339.288L135.307,411.879L180.434,412.56L188.555,424.651L146.544,485.718Z" style="fill:rgb(237,32,36);"/>
        </g>
    </g>
</svg>
