<?xml version="1.0" encoding="UTF-8" standalone="no"?>
<!DOCTYPE svg PUBLIC "-//W3C//DTD SVG 1.1//EN" "http://www.w3.org/Graphics/SVG/1.1/DTD/svg11.dtd">
<svg width="100%" height="100%" viewBox="0 0 1486 521" version="1.1" xmlns="http://www.w3.org/2000/svg" xmlns:xlink="http://www.w3.org/1999/xlink" xml:space="preserve" xmlns:serif="http://www.serif.com/" style="fill-rule:evenodd;clip-rule:evenodd;stroke-linejoin:round;stroke-miterlimit:2;">
    <g>
        <path d="M55.214,104.836L55.214,1.758L131.644,1.758L131.644,19.195L76.027,19.195L76.027,42.047L127.777,42.047L127.777,59.414L76.027,59.414L76.027,87.469L133.613,87.469L133.613,104.836L55.214,104.836Z" style="fill-rule:nonzero;"/>
        <path d="M151.824,104.836L151.824,2.602L172.636,2.602L172.636,87.469L224.386,87.469L224.386,104.836L151.824,104.836Z" style="fill-rule:nonzero;"/>
        <path d="M239.222,104.836L239.222,1.758L315.652,1.758L315.652,19.195L260.034,19.195L260.034,42.047L311.784,42.047L311.784,59.414L260.034,59.414L260.034,87.469L317.62,87.469L317.62,104.836L239.222,104.836Z" style="fill-rule:nonzero;"/>
        <path d="M401.222,66.938L421.402,73.336C418.308,84.586 413.163,92.941 405.968,98.402C398.773,103.863 389.644,106.594 378.581,106.594C364.894,106.594 353.644,101.918 344.831,92.566C336.019,83.215 331.613,70.43 331.613,54.211C331.613,37.055 336.042,23.73 344.902,14.238C353.761,4.746 365.409,-0 379.847,-0C392.456,-0 402.699,3.727 410.574,11.18C415.261,15.586 418.777,21.914 421.12,30.164L400.519,35.086C399.3,29.742 396.757,25.523 392.89,22.43C389.023,19.336 384.324,17.789 378.792,17.789C371.152,17.789 364.952,20.531 360.195,26.016C355.437,31.5 353.058,40.383 353.058,52.664C353.058,65.695 355.402,74.977 360.089,80.508C364.777,86.039 370.87,88.805 378.37,88.805C383.902,88.805 388.659,87.047 392.644,83.531C396.628,80.016 399.488,74.484 401.222,66.938Z" style="fill-rule:nonzero;"/>
        <path d="M462.464,104.836L462.464,19.195L431.878,19.195L431.878,1.758L513.792,1.758L513.792,19.195L483.277,19.195L483.277,104.836L462.464,104.836Z" style="fill-rule:nonzero;"/>
        <path d="M527.292,104.836L527.292,1.758L571.097,1.758C582.113,1.758 590.116,2.684 595.109,4.535C600.101,6.387 604.097,9.68 607.097,14.414C610.097,19.148 611.597,24.563 611.597,30.656C611.597,38.391 609.324,44.777 604.777,49.816C600.23,54.855 593.433,58.031 584.386,59.344C588.886,61.969 592.601,64.852 595.531,67.992C598.46,71.133 602.409,76.711 607.378,84.727L619.964,104.836L595.074,104.836L580.027,82.406C574.683,74.391 571.027,69.34 569.058,67.254C567.089,65.168 565.003,63.738 562.8,62.965C560.597,62.191 557.105,61.805 552.324,61.805L548.105,61.805L548.105,104.836L527.292,104.836ZM548.105,45.352L563.503,45.352C573.488,45.352 579.722,44.93 582.206,44.086C584.691,43.242 586.636,41.789 588.042,39.727C589.449,37.664 590.152,35.086 590.152,31.992C590.152,28.523 589.226,25.723 587.374,23.59C585.523,21.457 582.909,20.109 579.534,19.547C577.847,19.313 572.784,19.195 564.347,19.195L548.105,19.195L548.105,45.352Z" style="fill-rule:nonzero;"/>
        <rect x="630.581" y="1.758" width="20.813" height="103.078"/>
        <path d="M737.175,66.938L757.355,73.336C754.261,84.586 749.116,92.941 741.921,98.402C734.726,103.863 725.597,106.594 714.534,106.594C700.847,106.594 689.597,101.918 680.784,92.566C671.972,83.215 667.566,70.43 667.566,54.211C667.566,37.055 671.995,23.73 680.855,14.238C689.714,4.746 701.363,-0 715.8,-0C728.409,-0 738.652,3.727 746.527,11.18C751.214,15.586 754.73,21.914 757.074,30.164L736.472,35.086C735.253,29.742 732.71,25.523 728.843,22.43C724.976,19.336 720.277,17.789 714.745,17.789C707.105,17.789 700.906,20.531 696.148,26.016C691.39,31.5 689.011,40.383 689.011,52.664C689.011,65.695 691.355,74.977 696.042,80.508C700.73,86.039 706.824,88.805 714.324,88.805C719.855,88.805 724.613,87.047 728.597,83.531C732.581,80.016 735.441,74.484 737.175,66.938Z" style="fill-rule:nonzero;"/>
        <path d="M868.167,104.836L845.527,104.836L836.527,81.422L795.324,81.422L786.816,104.836L764.738,104.836L804.886,1.758L826.894,1.758L868.167,104.836ZM829.847,64.055L815.644,25.805L801.722,64.055L829.847,64.055Z" style="fill-rule:nonzero;"/>
        <path d="M879.769,104.836L879.769,2.602L900.581,2.602L900.581,87.469L952.331,87.469L952.331,104.836L879.769,104.836Z" style="fill-rule:nonzero;"/>
    </g>
    <g>
        <rect x="372.032" y="186.286" width="20.813" height="103.078"/>
        <path d="M412.884,289.364L412.884,186.286L433.134,186.286L475.321,255.121L475.321,186.286L494.657,186.286L494.657,289.364L473.774,289.364L432.22,222.145L432.22,289.364L412.884,289.364Z" style="fill-rule:nonzero;"/>
        <path d="M511.392,255.825L531.642,253.856C532.86,260.653 535.333,265.645 539.06,268.832C542.786,272.02 547.814,273.614 554.142,273.614C560.845,273.614 565.896,272.196 569.294,269.36C572.692,266.524 574.392,263.207 574.392,259.411C574.392,256.973 573.677,254.899 572.247,253.188C570.817,251.477 568.321,249.989 564.759,248.723C562.321,247.879 556.767,246.379 548.095,244.223C536.939,241.457 529.11,238.059 524.61,234.028C518.282,228.356 515.118,221.442 515.118,213.286C515.118,208.036 516.606,203.125 519.583,198.555C522.56,193.985 526.849,190.504 532.45,188.114C538.052,185.723 544.814,184.528 552.735,184.528C565.673,184.528 575.411,187.364 581.95,193.036C588.489,198.707 591.923,206.278 592.251,215.746L571.439,216.661C570.548,211.364 568.638,207.555 565.708,205.235C562.778,202.914 558.384,201.754 552.524,201.754C546.478,201.754 541.743,202.996 538.321,205.481C536.118,207.075 535.017,209.207 535.017,211.879C535.017,214.317 536.048,216.403 538.11,218.137C540.735,220.34 547.11,222.637 557.235,225.028C567.36,227.418 574.849,229.891 579.7,232.446C584.552,235 588.349,238.493 591.091,242.922C593.833,247.352 595.204,252.825 595.204,259.34C595.204,265.246 593.564,270.778 590.282,275.934C587.001,281.09 582.36,284.922 576.36,287.43C570.36,289.938 562.884,291.192 553.931,291.192C540.899,291.192 530.892,288.18 523.907,282.157C516.923,276.133 512.751,267.356 511.392,255.825Z" style="fill-rule:nonzero;"/>
        <path d="M635.915,289.364L635.915,203.723L605.329,203.723L605.329,186.286L687.243,186.286L687.243,203.723L656.728,203.723L656.728,289.364L635.915,289.364Z" style="fill-rule:nonzero;"/>
        <path d="M782.939,289.364L760.298,289.364L751.298,265.95L710.095,265.95L701.587,289.364L679.509,289.364L719.657,186.286L741.665,186.286L782.939,289.364ZM744.618,248.582L730.415,210.332L716.493,248.582L744.618,248.582Z" style="fill-rule:nonzero;"/>
        <path d="M794.54,289.364L794.54,187.129L815.353,187.129L815.353,271.996L867.103,271.996L867.103,289.364L794.54,289.364Z" style="fill-rule:nonzero;"/>
        <path d="M882.501,289.364L882.501,187.129L903.314,187.129L903.314,271.996L955.064,271.996L955.064,289.364L882.501,289.364Z" style="fill-rule:nonzero;"/>
        <path d="M1062.85,289.364L1040.21,289.364L1031.21,265.95L990.006,265.95L981.498,289.364L959.42,289.364L999.568,186.286L1021.58,186.286L1062.85,289.364ZM1024.53,248.582L1010.33,210.332L996.404,248.582L1024.53,248.582Z" style="fill-rule:nonzero;"/>
        <path d="M1086.41,289.364L1086.41,203.723L1055.82,203.723L1055.82,186.286L1137.74,186.286L1137.74,203.723L1107.22,203.723L1107.22,289.364L1086.41,289.364Z" style="fill-rule:nonzero;"/>
        <rect x="1150.53" y="186.286" width="20.813" height="103.078"/>
        <path d="M1186.95,238.457C1186.95,227.957 1188.52,219.145 1191.66,212.02C1194.01,206.77 1197.2,202.059 1201.26,197.887C1205.31,193.715 1209.76,190.621 1214.58,188.606C1221.01,185.887 1228.41,184.528 1236.8,184.528C1251.99,184.528 1264.14,189.239 1273.26,198.661C1282.38,208.082 1286.93,221.184 1286.93,237.965C1286.93,254.606 1282.41,267.625 1273.36,277.024C1264.32,286.422 1252.22,291.121 1237.08,291.121C1221.76,291.121 1209.57,286.446 1200.52,277.094C1191.47,267.743 1186.95,254.864 1186.95,238.457ZM1208.39,237.754C1208.39,249.426 1211.09,258.274 1216.48,264.297C1221.87,270.321 1228.72,273.332 1237.01,273.332C1245.31,273.332 1252.12,270.344 1257.44,264.368C1262.76,258.391 1265.42,249.426 1265.42,237.473C1265.42,225.661 1262.83,216.848 1257.65,211.036C1252.47,205.223 1245.59,202.317 1237.01,202.317C1228.43,202.317 1221.52,205.258 1216.27,211.141C1211.02,217.024 1208.39,225.895 1208.39,237.754Z" style="fill-rule:nonzero;"/>
        <path d="M1303.39,289.364L1303.39,186.286L1323.64,186.286L1365.83,255.121L1365.83,186.286L1385.16,186.286L1385.16,289.364L1364.28,289.364L1322.73,222.145L1322.73,289.364L1303.39,289.364Z" style="fill-rule:nonzero;"/>
        <path d="M1401.9,255.825L1422.15,253.856C1423.37,260.653 1425.84,265.645 1429.57,268.832C1433.3,272.02 1438.32,273.614 1444.65,273.614C1451.35,273.614 1456.4,272.196 1459.8,269.36C1463.2,266.524 1464.9,263.207 1464.9,259.411C1464.9,256.973 1464.19,254.899 1462.76,253.188C1461.33,251.477 1458.83,249.989 1455.27,248.723C1452.83,247.879 1447.28,246.379 1438.6,244.223C1427.45,241.457 1419.62,238.059 1415.12,234.028C1408.79,228.356 1405.63,221.442 1405.63,213.286C1405.63,208.036 1407.12,203.125 1410.09,198.555C1413.07,193.985 1417.36,190.504 1422.96,188.114C1428.56,185.723 1435.32,184.528 1443.24,184.528C1456.18,184.528 1465.92,187.364 1472.46,193.036C1479,198.707 1482.43,206.278 1482.76,215.746L1461.95,216.661C1461.06,211.364 1459.15,207.555 1456.22,205.235C1453.29,202.914 1448.89,201.754 1443.03,201.754C1436.99,201.754 1432.25,202.996 1428.83,205.481C1426.63,207.075 1425.53,209.207 1425.53,211.879C1425.53,214.317 1426.56,216.403 1428.62,218.137C1431.24,220.34 1437.62,222.637 1447.74,225.028C1457.87,227.418 1465.36,229.891 1470.21,232.446C1475.06,235 1478.86,238.493 1481.6,242.922C1484.34,247.352 1485.71,252.825 1485.71,259.34C1485.71,265.246 1484.07,270.778 1480.79,275.934C1477.51,281.09 1472.87,284.922 1466.87,287.43C1460.87,289.938 1453.39,291.192 1444.44,291.192C1431.41,291.192 1421.4,288.18 1414.42,282.157C1407.43,276.133 1403.26,267.356 1401.9,255.825Z" style="fill-rule:nonzero;"/>
    </g>
    <rect x="264.103" y="435.707" width="245.45" height="20.583"/>
    <rect x="1325.53" y="434.732" width="158.217" height="21.207"/>
    <rect x="264.103" y="401.54" width="245.45" height="20.583"/>
    <rect x="1325.53" y="400.565" width="157.631" height="21.831"/>
    <g>
        <g>
            <path d="M15.173,502.668C129.79,538.199 231.379,514.967 322.484,444.457L372.506,228.609C273.6,277.708 172.765,312.15 67.84,315.482L15.173,502.668Z" style="fill:white;"/>
            <path d="M108.596,507.113L223.841,396.139L177.939,394.164L178.378,382.706L260.616,298.881L200.513,297.854L201.806,286.878L293.397,175.164L203.121,174.167L112.286,332.846L162.658,333.596L168.824,341.036L101.388,417.018L153.275,417.693L159.261,425.042L105.524,504.191L108.596,507.113Z" style="fill:white;"/>
            <path d="M308.946,433.321L358.401,217.174C311.624,243.663 261.98,266.631 206.086,281.934L201.618,286.852L200.353,297.255L261.198,298.683L178.625,381.849L177.905,394.531L223.593,395.755L108.583,507.715L105.386,503.711L159.082,425.382L153.365,416.792L102.347,416.099L168.844,340.107L162.882,333.835L112.907,332.193L135.054,292.293L50.059,293.471L0,490.238C131.006,527.723 231.379,503.496 308.946,433.321Z" style="fill:rgb(255,242,0);"/>
            <path d="M123.828,485.718L212.971,399.916L173.782,399.227L173.832,380.432L250.101,302.179L196.62,301.356L197.394,283.715L283.552,178.715L207.86,178.029L121.177,328.148L165.961,329.63L175.006,339.288L112.591,411.879L157.718,412.56L165.839,424.651L123.828,485.718Z" style="fill:rgb(237,32,36);"/>
        </g>
    </g>
    <g transform="matrix(10.8742,0,0,1,-5374.3,3.02743)">
        <path d="M542.913,433.779L543.844,432.795C543.9,436.193 544.013,438.689 544.185,440.283C544.356,441.877 544.587,442.673 544.878,442.673C545.186,442.673 545.419,441.964 545.575,440.547C545.731,439.129 545.809,437.47 545.809,435.572C545.809,434.353 545.776,433.316 545.711,432.461C545.645,431.605 545.53,430.861 545.366,430.228C545.254,429.806 544.999,429.056 544.6,427.978C544.087,426.595 543.727,424.896 543.52,422.88C543.229,420.045 543.084,416.588 543.084,412.509C543.084,409.884 543.152,407.429 543.289,405.144C543.426,402.859 543.623,401.119 543.881,399.923C544.138,398.728 544.449,398.13 544.814,398.13C545.408,398.13 545.856,399.548 546.157,402.384C546.458,405.22 546.615,409.005 546.63,413.74L545.674,414.197C545.633,411.548 545.545,409.644 545.41,408.484C545.275,407.324 545.073,406.744 544.804,406.744C544.526,406.744 544.308,407.365 544.151,408.607C544.049,409.404 543.999,410.47 543.999,411.806C543.999,413.025 544.046,414.068 544.141,414.935C544.262,416.037 544.555,417.185 545.02,418.38C545.486,419.576 545.83,420.812 546.053,422.089C546.276,423.367 546.451,425.113 546.577,427.328C546.703,429.543 546.766,432.279 546.766,435.537C546.766,438.49 546.691,441.255 546.54,443.834C546.389,446.412 546.176,448.328 545.9,449.582C545.624,450.836 545.28,451.463 544.869,451.463C544.269,451.463 543.809,449.957 543.488,446.945C543.167,443.933 542.975,439.545 542.913,433.779Z" style="fill-rule:nonzero;"/>
        <path d="M548.233,450.548L548.233,399.009L549.769,399.009C550.351,399.009 550.73,399.267 550.907,399.783C551.179,400.556 551.406,402.238 551.589,404.828C551.772,407.418 551.864,410.763 551.864,414.865C551.864,418.029 551.811,420.689 551.706,422.845C551.6,425.002 551.466,426.695 551.303,427.925C551.14,429.156 550.975,429.97 550.807,430.369C550.578,430.861 550.248,431.107 549.814,431.107L549.19,431.107L549.19,450.548L548.233,450.548ZM549.19,407.728L549.19,422.353L549.714,422.353C550.091,422.353 550.343,422.084 550.471,421.545C550.598,421.005 550.698,420.162 550.77,419.013C550.842,417.865 550.878,416.529 550.878,415.005C550.878,413.13 550.827,411.584 550.726,410.365C550.625,409.146 550.497,408.384 550.341,408.08C550.227,407.845 549.998,407.728 549.653,407.728L549.19,407.728Z" style="fill-rule:nonzero;"/>
        <path d="M554.557,450.548L554.557,428.857L552.82,399.009L553.942,399.009L555.058,419.4L556.15,399.009L557.253,399.009L555.51,428.927L555.51,450.548L554.557,450.548Z" style="fill-rule:nonzero;"/>
        <path d="M558.393,450.548L558.393,399.009L560.408,399.009C560.914,399.009 561.282,399.472 561.512,400.398C561.741,401.324 561.925,402.97 562.063,405.338C562.201,407.705 562.27,410.412 562.27,413.459C562.27,417.326 562.165,420.519 561.956,423.039C561.747,425.558 561.435,427.146 561.019,427.802C561.226,429.115 561.396,430.556 561.531,432.127C561.666,433.697 561.847,436.486 562.076,440.494L562.655,450.548L561.51,450.548L560.818,439.334C560.573,435.326 560.404,432.8 560.314,431.757C560.223,430.714 560.127,430 560.026,429.613C559.925,429.226 559.764,429.033 559.544,429.033L559.35,429.033L559.35,450.548L558.393,450.548ZM559.35,420.806L560.058,420.806C560.518,420.806 560.804,420.595 560.918,420.173C561.033,419.752 561.122,419.025 561.187,417.994C561.251,416.963 561.284,415.673 561.284,414.127C561.284,412.392 561.241,410.992 561.156,409.925C561.071,408.859 560.951,408.185 560.796,407.904C560.718,407.787 560.485,407.728 560.097,407.728L559.35,407.728L559.35,420.806Z" style="fill-rule:nonzero;"/>
        <path d="M563.64,425.095C563.64,419.845 563.712,415.439 563.857,411.877C563.964,409.252 564.111,406.896 564.298,404.81C564.484,402.724 564.689,401.177 564.911,400.17C565.206,398.81 565.546,398.13 565.932,398.13C566.631,398.13 567.189,400.486 567.608,405.197C568.028,409.908 568.237,416.459 568.237,424.849C568.237,433.17 568.029,439.679 567.613,444.379C567.197,449.078 566.641,451.427 565.945,451.427C565.24,451.427 564.68,449.089 564.264,444.414C563.848,439.738 563.64,433.298 563.64,425.095ZM564.626,424.744C564.626,430.58 564.75,435.004 564.998,438.015C565.246,441.027 565.56,442.533 565.942,442.533C566.323,442.533 566.636,441.039 566.881,438.05C567.126,435.062 567.248,430.58 567.248,424.603C567.248,418.697 567.129,414.291 566.891,411.384C566.653,408.478 566.336,407.025 565.942,407.025C565.547,407.025 565.23,408.496 564.988,411.437C564.747,414.379 564.626,418.814 564.626,424.744Z" style="fill-rule:nonzero;"/>
        <path d="M571.851,431.599L571.851,422.916L573.914,422.916L573.914,443.447C573.713,445.556 573.423,447.414 573.043,449.019C572.662,450.625 572.277,451.427 571.887,451.427C571.391,451.427 570.959,450.297 570.59,448.035C570.222,445.773 569.945,442.539 569.759,438.332C569.574,434.125 569.481,429.548 569.481,424.603C569.481,419.236 569.585,414.466 569.792,410.295C569.999,406.123 570.301,402.923 570.7,400.697C571.004,398.986 571.382,398.13 571.835,398.13C572.423,398.13 572.883,399.472 573.214,402.156C573.545,404.839 573.758,408.548 573.852,413.283L572.902,415.216C572.835,412.685 572.71,410.687 572.525,409.222C572.341,407.757 572.111,407.025 571.835,407.025C571.417,407.025 571.084,408.466 570.838,411.349C570.591,414.232 570.467,418.509 570.467,424.181C570.467,430.298 570.592,434.886 570.842,437.945C571.092,441.004 571.42,442.533 571.825,442.533C572.026,442.533 572.227,442.105 572.428,441.25C572.63,440.394 572.803,439.357 572.947,438.138L572.947,431.599L571.851,431.599Z" style="fill-rule:nonzero;"/>
        <path d="M575.484,450.548L575.484,399.431L576.441,399.431L576.441,441.865L578.821,441.865L578.821,450.548L575.484,450.548Z" style="fill-rule:nonzero;"/>
        <path d="M579.971,425.095C579.971,419.845 580.043,415.439 580.188,411.877C580.296,409.252 580.443,406.896 580.629,404.81C580.816,402.724 581.02,401.177 581.242,400.17C581.537,398.81 581.878,398.13 582.263,398.13C582.962,398.13 583.52,400.486 583.94,405.197C584.359,409.908 584.569,416.459 584.569,424.849C584.569,433.17 584.361,439.679 583.945,444.379C583.529,449.078 582.972,451.427 582.276,451.427C581.572,451.427 581.011,449.089 580.595,444.414C580.179,439.738 579.971,433.298 579.971,425.095ZM580.957,424.744C580.957,430.58 581.081,435.004 581.329,438.015C581.577,441.027 581.892,442.533 582.273,442.533C582.655,442.533 582.968,441.039 583.212,438.05C583.457,435.062 583.579,430.58 583.579,424.603C583.579,418.697 583.46,414.291 583.222,411.384C582.984,408.478 582.668,407.025 582.273,407.025C581.879,407.025 581.561,408.496 581.319,411.437C581.078,414.379 580.957,418.814 580.957,424.744Z" style="fill-rule:nonzero;"/>
        <path d="M587.222,450.548L587.222,428.857L585.486,399.009L586.608,399.009L587.723,419.4L588.816,399.009L589.918,399.009L588.176,428.927L588.176,450.548L587.222,450.548Z" style="fill-rule:nonzero;"/>
        <path d="M593.441,450.548L593.441,399.009L594.398,399.009L594.398,419.295L596.273,419.295L596.273,399.009L597.23,399.009L597.23,450.548L596.273,450.548L596.273,428.013L594.398,428.013L594.398,450.548L593.441,450.548Z" style="fill-rule:nonzero;"/>
        <path d="M598.908,450.548L598.908,399.431L599.865,399.431L599.865,441.865L602.244,441.865L602.244,450.548L598.908,450.548Z" style="fill-rule:nonzero;"/>
        <path d="M603.575,450.548L603.575,399.009L605.008,399.009L605.868,434.166L606.718,399.009L608.153,399.009L608.153,450.548L607.264,450.548L607.264,409.978L606.323,450.548L605.402,450.548L604.464,409.978L604.464,450.548L603.575,450.548Z" style="fill-rule:nonzero;"/>
        <path d="M609.766,450.548L609.766,399.009L613.28,399.009L613.28,407.728L610.723,407.728L610.723,419.154L613.102,419.154L613.102,427.838L610.723,427.838L610.723,441.865L613.371,441.865L613.371,450.548L609.766,450.548Z" style="fill-rule:nonzero;"/>
    </g>
</svg>
